name E:\3-PhD\Data\MocapData\ElaboratedData\009\pre\dynamicElaborations\RunN3\RunN3.mot
datacolumns 37
datarows 14
range 2.306 2.3125
endheader

time	    ground_force1_vx	    ground_force1_vy	    ground_force1_vz	    ground_force1_px	    ground_force1_py	    ground_force1_pz	    ground_force2_vx	    ground_force2_vy	    ground_force2_vz	    ground_force2_px	    ground_force2_py	    ground_force2_pz	    ground_force3_vx	    ground_force3_vy	    ground_force3_vz	    ground_force3_px	    ground_force3_py	    ground_force3_pz	    ground_force4_vx	    ground_force4_vy	    ground_force4_vz	    ground_force4_px	    ground_force4_py	    ground_force4_pz	    ground_torque1_x	    ground_torque1_y	    ground_torque1_z	    ground_torque2_x	    ground_torque2_y	    ground_torque2_z	    ground_torque3_x	    ground_torque3_y	    ground_torque3_z	    ground_torque4_x	    ground_torque4_y	    ground_torque4_z	
2.306	          0.00000000	          0.00000000	          0.00000000	          0.00000000	          0.00000000	          0.00000000	          0.00000000	          0.00000000	          0.00000000	          0.00000000	          0.00000000	          0.00000000	       -433.85896483	       2020.54618000	        949.13038168	         -0.56782639	          0.00000000	          0.03519801	        -26.19596670	        113.84929556	         51.67792434	         -0.54510347	          0.00000000	         -0.01463055	          0.00000000	          0.00000000	          0.00000000	          0.00000000	          0.00000000	          0.00000000	          0.00000000	         12.03379035	         -0.00000000	         -0.00000000	         -0.00337199	          0.00000000	
2.3065	          0.00000000	          0.00000000	          0.00000000	          0.00000000	          0.00000000	          0.00000000	          0.00000000	          0.00000000	          0.00000000	          0.00000000	          0.00000000	          0.00000000	       -434.25672193	       2019.39150683	        951.94562234	         -0.56722096	          0.00000000	          0.03513152	        -25.92187275	        115.47966174	         52.56937267	         -0.54505039	          0.00000000	         -0.01456673	          0.00000000	          0.00000000	          0.00000000	          0.00000000	          0.00000000	          0.00000000	          0.00000000	         12.00941649	         -0.00000000	         -0.00000000	         -0.00347477	          0.00000000	
2.307	          0.00000000	          0.00000000	          0.00000000	          0.00000000	          0.00000000	          0.00000000	          0.00000000	          0.00000000	          0.00000000	          0.00000000	          0.00000000	          0.00000000	       -434.54009609	       2017.94867329	        954.62820490	         -0.56661156	          0.00000000	          0.03506373	        -25.62834773	        117.11617275	         53.46903922	         -0.54499835	          0.00000000	         -0.01450636	          0.00000000	          0.00000000	          0.00000000	          0.00000000	          0.00000000	          0.00000000	          0.00000000	         11.98081077	         -0.00000000	         -0.00000000	         -0.00374962	          0.00000000	
2.3075	          0.00000000	          0.00000000	          0.00000000	          0.00000000	          0.00000000	          0.00000000	          0.00000000	          0.00000000	          0.00000000	          0.00000000	          0.00000000	          0.00000000	       -434.70767175	       2016.23074698	        957.18295992	         -0.56599861	          0.00000000	          0.03499462	        -25.31573751	        118.75876988	         54.37704122	         -0.54494736	          0.00000000	         -0.01444932	          0.00000000	          0.00000000	          0.00000000	          0.00000000	          0.00000000	          0.00000000	          0.00000000	         11.94809971	         -0.00000000	         -0.00000000	         -0.00419175	          0.00000000	
2.308	          0.00000000	          0.00000000	          0.00000000	          0.00000000	          0.00000000	          0.00000000	          0.00000000	          0.00000000	          0.00000000	          0.00000000	          0.00000000	          0.00000000	       -434.75822559	       2014.25053380	        959.61459147	         -0.56538248	          0.00000000	          0.03492418	        -24.98441366	        120.40736006	         55.29348720	         -0.54489742	          0.00000000	         -0.01439550	          0.00000000	          0.00000000	          0.00000000	          0.00000000	          0.00000000	          0.00000000	          0.00000000	         11.91141424	         -0.00000000	         -0.00000000	         -0.00479458	          0.00000000	
2.3085	          0.00000000	          0.00000000	          0.00000000	          0.00000000	          0.00000000	          0.00000000	          0.00000000	          0.00000000	          0.00000000	          0.00000000	          0.00000000	          0.00000000	       -434.69071047	       2012.02056165	        961.92765632	         -0.56476359	          0.00000000	          0.03485239	        -24.63475302	        122.06181701	         56.21847398	         -0.54484850	          0.00000000	         -0.01434481	          0.00000000	          0.00000000	          0.00000000	          0.00000000	          0.00000000	          0.00000000	          0.00000000	         11.87088321	         -0.00000000	         -0.00000000	         -0.00555407	          0.00000000	
2.309	          0.00000000	          0.00000000	          0.00000000	          0.00000000	          0.00000000	          0.00000000	          0.00000000	          0.00000000	          0.00000000	          0.00000000	          0.00000000	          0.00000000	       -434.50424599	       2009.55306462	        964.12655420	         -0.56414231	          0.00000000	          0.03477924	        -24.26712546	        123.72198077	         57.15208201	         -0.54480058	          0.00000000	         -0.01429718	          0.00000000	          0.00000000	          0.00000000	          0.00000000	          0.00000000	          0.00000000	          0.00000000	         11.82663184	         -0.00000000	         -0.00000000	         -0.00646936	          0.00000000	
2.3095	          0.00000000	          0.00000000	          0.00000000	          0.00000000	          0.00000000	          0.00000000	          0.00000000	          0.00000000	          0.00000000	          0.00000000	          0.00000000	          0.00000000	       -434.19811183	       2006.85997492	        966.21553001	         -0.56351903	          0.00000000	          0.03470472	        -23.88190294	        125.38765155	         58.09437385	         -0.54475364	          0.00000000	         -0.01425253	          0.00000000	          0.00000000	          0.00000000	          0.00000000	          0.00000000	          0.00000000	          0.00000000	         11.77878623	         -0.00000000	         -0.00000000	         -0.00753909	          0.00000000	
2.31	          0.00000000	          0.00000000	          0.00000000	          0.00000000	          0.00000000	          0.00000000	          0.00000000	          0.00000000	          0.00000000	          0.00000000	          0.00000000	          0.00000000	       -433.77173713	       2003.95292224	        968.19867396	         -0.56289413	          0.00000000	          0.03462881	        -23.47947404	        127.05858024	         59.04539637	         -0.54470764	          0.00000000	         -0.01421079	          0.00000000	          0.00000000	          0.00000000	          0.00000000	          0.00000000	          0.00000000	          0.00000000	         11.72747537	         -0.00000000	         -0.00000000	         -0.00875820	          0.00000000	
2.3105	          0.00000000	          0.00000000	          0.00000000	          0.00000000	          0.00000000	          0.00000000	          0.00000000	          0.00000000	          0.00000000	          0.00000000	          0.00000000	          0.00000000	       -433.22468608	       2000.84322811	        970.07991122	         -0.56226798	          0.00000000	          0.03455153	        -23.06024194	        128.73446417	         60.00518216	         -0.54466255	          0.00000000	         -0.01417184	          0.00000000	          0.00000000	          0.00000000	          0.00000000	          0.00000000	          0.00000000	          0.00000000	         11.67282597	         -0.00000000	         -0.00000000	         -0.01011909	          0.00000000	
2.311	          0.00000000	          0.00000000	          0.00000000	          0.00000000	          0.00000000	          0.00000000	          0.00000000	          0.00000000	          0.00000000	          0.00000000	          0.00000000	          0.00000000	       -432.55664566	       1997.54189043	        971.86298886	         -0.56164096	          0.00000000	          0.03447287	        -22.62460643	        130.41495141	         60.97374722	         -0.54461833	          0.00000000	         -0.01413559	          0.00000000	          0.00000000	          0.00000000	          0.00000000	          0.00000000	          0.00000000	          0.00000000	         11.61495732	         -0.00000000	         -0.00000000	         -0.01161530	          0.00000000	
2.3115	          0.00000000	          0.00000000	          0.00000000	          0.00000000	          0.00000000	          0.00000000	          0.00000000	          0.00000000	          0.00000000	          0.00000000	          0.00000000	          0.00000000	       -431.76741912	       1994.05956966	        973.55147272	         -0.56101343	          0.00000000	          0.03439284	        -22.17295225	        132.09964757	         61.95108708	         -0.54457495	          0.00000000	         -0.01410192	          0.00000000	          0.00000000	          0.00000000	          0.00000000	          0.00000000	          0.00000000	          0.00000000	         11.55398343	         -0.00000000	         -0.00000000	         -0.01324321	          0.00000000	
2.312	          0.00000000	          0.00000000	          0.00000000	          0.00000000	          0.00000000	          0.00000000	          0.00000000	          0.00000000	          0.00000000	          0.00000000	          0.00000000	          0.00000000	       -430.85692210	       1990.40658510	        975.14875361	         -0.56038574	          0.00000000	          0.03431144	        -21.70565674	        133.78811911	         62.93717592	         -0.54453237	          0.00000000	         -0.01407074	          0.00000000	          0.00000000	          0.00000000	          0.00000000	          0.00000000	          0.00000000	          0.00000000	         11.49001741	         -0.00000000	         -0.00000000	         -0.01500017	          0.00000000	
2.3125	          0.00000000	          0.00000000	          0.00000000	          0.00000000	          0.00000000	          0.00000000	          0.00000000	          0.00000000	          0.00000000	          0.00000000	          0.00000000	          0.00000000	       -429.82517566	       1986.59291547	        976.65805146	         -0.55975826	          0.00000000	          0.03422869	        -21.22310445	        135.47989397	         63.93196924	         -0.54449056	          0.00000000	         -0.01404200	          0.00000000	          0.00000000	          0.00000000	          0.00000000	          0.00000000	          0.00000000	          0.00000000	         11.42316950	         -0.00000000	         -0.00000000	         -0.01688185	          0.00000000	
